<svg xmlns="http://www.w3.org/2000/svg" width="38" height="38"><path stroke="#FFF" stroke-width="2" fill="none" d="M18.499.999c9.665 0 17.5 7.835 17.5 17.5s-7.835 17.5-17.5 17.5-17.5-7.835-17.5-17.5 7.835-17.5 17.5-17.5z"/><path fill-rule="evenodd" fill="#FFF" d="M26.999 13.424a7.026 7.026 0 01-1.888.469c.68-.375 1.198-.966 1.442-1.669-.63.347-1.34.6-2.081.731-.599-.59-1.272-.956-1.712-.956-2.502 0-3.964 1.359-3.964 3.271 0-.008.031.226.082.451-2.721-.131-5.148-1.331-6.762-3.169-.284.648-.446.966-.446 2.258 0 .32.578 1.77 1.461 1.792-.538-.018-.271-.159-1.482-.384v.037c0 1.472 1.127 2.691 2.63 2.972.121.066-.569.103-.863.103-.213 0-.417-.019-.62-.046.417 1.199 1.625 2.071 3.066 2.099a6.918 6.918 0 01-4.071 1.294c-.274 0-.528-.009-.792-.037 1.452.862 3.178 1.359 5.351 1.359 6.3 0 9.015-4.613 9.015-8.616 0-.131 0-.262-.01-.393.639-.431 1.198-.75 1.644-1.566z"/></svg>